<svg width="1098" height="877" viewBox="0 0 1098 877" fill="none" xmlns="http://www.w3.org/2000/svg">
<path opacity="0.45" d="M576.907 816.784C840.882 816.784 1054.88 792.993 1054.88 763.645C1054.88 734.296 840.882 710.505 576.907 710.505C312.933 710.505 98.9399 734.296 98.9399 763.645C98.9399 792.993 312.933 816.784 576.907 816.784Z" fill="#E6E6E6"/>
<path d="M871.574 658.937L832.027 755.104L820.736 752.88L841.572 652.294L871.574 658.937Z" fill="#F4A28C"/>
<path d="M821.58 753.028C821.58 753.028 813.811 759.849 805.925 757.892C798.038 755.935 794.692 767.173 807.729 768.508C811.779 768.937 815.857 769.026 819.922 768.775C823.657 768.628 827.364 769.498 830.66 771.295C831.314 771.588 832.04 771.671 832.742 771.534C833.443 771.396 834.087 771.044 834.588 770.524C839.069 766.877 832.027 755.104 832.027 755.104L821.58 753.028Z" fill="#68E1FD"/>
<path d="M936.787 641.856L977.876 737.312L968.506 744.132L911.354 659.411L936.787 641.856Z" fill="#F4A28C"/>
<path d="M969.205 743.539C969.205 743.539 968.71 753.977 961.871 758.366C955.033 762.755 960.707 773.193 970.601 764.297C973.701 761.58 976.572 758.604 979.186 755.401C981.656 752.539 984.83 750.399 988.382 749.203C989.041 748.921 989.6 748.44 989.985 747.825C990.369 747.211 990.561 746.492 990.535 745.763C991.03 739.832 977.818 737.015 977.818 737.015L969.205 743.539Z" fill="#68E1FD"/>
<path opacity="0.3" d="M284.714 264.51C203.7 307.627 155.831 387.069 163.455 469.893C167.354 512.239 185.28 553.102 232.8 575.402C359.298 634.917 911.645 635.925 993.387 530.772C1075.13 425.62 1044.69 276.223 866.889 213.979C712.95 160.039 493.681 152.892 284.714 264.51Z" fill="#E6E6E6"/>
<path d="M659.377 357.03V250.187H746.531" stroke="#A5A5A5" stroke-width="4.06" stroke-linecap="round" stroke-linejoin="round"/>
<path d="M764.195 267.772C773.951 267.772 781.859 259.713 781.859 249.772C781.859 239.831 773.951 231.772 764.195 231.772C754.44 231.772 746.532 239.831 746.532 249.772C746.532 259.713 754.44 267.772 764.195 267.772Z" stroke="#E6E6E6" stroke-width="4.06" stroke-linecap="round" stroke-linejoin="round"/>
<path d="M617.24 344.397V137.858" stroke="#A5A5A5" stroke-width="4.06" stroke-linecap="round" stroke-linejoin="round"/>
<path d="M617.24 137.828C626.995 137.828 634.904 129.769 634.904 119.828C634.904 109.887 626.995 101.828 617.24 101.828C607.485 101.828 599.576 109.887 599.576 119.828C599.576 129.769 607.485 137.828 617.24 137.828Z" stroke="#E6E6E6" stroke-width="4.06" stroke-linecap="round" stroke-linejoin="round"/>
<path d="M560.728 399.346V192.807" stroke="#A5A5A5" stroke-width="4.06" stroke-linecap="round" stroke-linejoin="round"/>
<path d="M560.728 192.777C570.483 192.777 578.392 184.718 578.392 174.777C578.392 164.836 570.483 156.777 560.728 156.777C550.973 156.777 543.064 164.836 543.064 174.777C543.064 184.718 550.973 192.777 560.728 192.777Z" stroke="#E6E6E6" stroke-width="4.06" stroke-linecap="round" stroke-linejoin="round"/>
<path d="M504.419 345.317V138.777" stroke="#A5A5A5" stroke-width="4.06" stroke-linecap="round" stroke-linejoin="round"/>
<path d="M461.322 357.03V250.187H374.139" stroke="#A5A5A5" stroke-width="4.06" stroke-linecap="round" stroke-linejoin="round"/>
<path d="M504.099 542.041L490.48 697.249L423.289 762.31H697.672L635.544 697.249L605.367 542.041H504.099Z" fill="#FFD200"/>
<path d="M421.805 357.03H451.894V478.315H421.805C406.083 478.315 391.006 471.95 379.89 460.622C368.773 449.294 362.528 433.93 362.528 417.91V417.346C362.551 401.341 368.806 386 379.92 374.691C391.034 363.382 406.098 357.03 421.805 357.03V357.03Z" fill="#FFD200"/>
<path d="M701.281 478.315H671.192V357.03H701.281C709.065 357.03 716.773 358.592 723.965 361.628C731.157 364.664 737.692 369.113 743.196 374.722C748.7 380.331 753.067 386.99 756.045 394.319C759.024 401.648 760.558 409.503 760.558 417.435V417.998C760.534 434.003 754.279 449.345 743.165 460.654C732.051 471.963 716.987 478.315 701.281 478.315V478.315Z" fill="#FFD200"/>
<path opacity="0.08" d="M421.805 357.03H451.894V478.315H421.805C406.083 478.315 391.006 471.95 379.89 460.622C368.773 449.294 362.528 433.93 362.528 417.91V417.346C362.551 401.341 368.806 386 379.92 374.691C391.034 363.382 406.098 357.03 421.805 357.03V357.03Z" fill="black"/>
<path opacity="0.08" d="M701.281 478.315H671.192V357.03H701.281C709.065 357.03 716.773 358.592 723.965 361.628C731.157 364.664 737.692 369.113 743.196 374.722C748.7 380.331 753.067 386.99 756.045 394.319C759.024 401.648 760.558 409.503 760.558 417.435V417.998C760.534 434.003 754.279 449.345 743.165 460.654C732.051 471.963 716.987 478.315 701.281 478.315V478.315Z" fill="black"/>
<path opacity="0.08" d="M498.541 605.322L493.972 657.543C493.972 657.543 585.579 683.045 622.74 631.477L618.491 609.592L498.541 605.322Z" fill="black"/>
<path d="M427.77 322.958H697.673V484.66C697.673 520.995 683.508 555.842 658.295 581.535C633.083 607.228 598.887 621.662 563.231 621.662H562.212C526.556 621.662 492.36 607.228 467.147 581.535C441.934 555.842 427.77 520.995 427.77 484.66V322.958Z" fill="#FFF8DC"/>
<path d="M544.781 433.181L532.85 527.57H588.809L571.379 433.181H544.781Z" fill="#FFD200"/>
<path d="M455.328 402.282C455.328 402.282 489.287 432.173 525.953 402.282" stroke="#24285B" stroke-width="3.045" stroke-linecap="round" stroke-linejoin="round"/>
<path d="M595.066 402.282C595.066 402.282 628.997 432.173 665.663 402.282" stroke="#24285B" stroke-width="3.045" stroke-linecap="round" stroke-linejoin="round"/>
<path d="M356.475 267.772C366.23 267.772 374.139 259.713 374.139 249.772C374.139 239.831 366.23 231.772 356.475 231.772C346.72 231.772 338.811 239.831 338.811 249.772C338.811 259.713 346.72 267.772 356.475 267.772Z" stroke="#E6E6E6" stroke-width="4.06" stroke-linecap="round" stroke-linejoin="round"/>
<path d="M504.419 138.777C514.175 138.777 522.083 130.718 522.083 120.777C522.083 110.836 514.175 102.777 504.419 102.777C494.664 102.777 486.756 110.836 486.756 120.777C486.756 130.718 494.664 138.777 504.419 138.777Z" stroke="#E6E6E6" stroke-width="4.06" stroke-linecap="round" stroke-linejoin="round"/>
<path d="M381.85 620.979H275.635V762.34H381.85V620.979Z" fill="#E6E6E6"/>
<path opacity="0.58" d="M318.791 590.406C318.791 590.406 294.608 583.675 289.341 560.752C289.341 560.752 326.822 553.042 327.87 592.452L318.791 590.406Z" fill="#68E1FD"/>
<path opacity="0.73" d="M321.759 587.975C321.759 587.975 304.852 560.723 319.722 535.28C319.722 535.28 348.211 553.725 335.552 588.034L321.759 587.975Z" fill="#68E1FD"/>
<path d="M326.095 587.975C326.095 587.975 335.028 559.24 362.033 553.784C362.033 553.784 367.097 572.466 344.573 588.064L326.095 587.975Z" fill="#68E1FD"/>
<path d="M308.576 587.322L313.465 621.513L344.34 621.661L348.909 587.5L308.576 587.322Z" fill="#24285B"/>
<path opacity="0.02" d="M381.85 658.284C381.85 658.284 367.911 739.447 275.635 728.149V762.31H381.85V658.284Z" fill="black"/>
<path d="M874.833 353.205C874.833 353.205 912.285 368.714 881.206 440.891C850.127 513.069 792.859 596.337 685.771 543.998C682.556 546.002 678.75 546.785 675.023 546.21C671.297 545.635 667.889 543.739 665.401 540.855C656.176 530.446 678.699 526.413 686.353 533.352C686.353 533.352 794.779 530.031 806.361 464.614C817.943 399.198 827.662 333.752 874.833 353.205Z" fill="#F4A28C"/>
<path opacity="0.08" d="M874.833 353.205C874.833 353.205 912.285 368.714 881.206 440.891C850.127 513.069 792.859 596.337 685.771 543.998C682.556 546.002 678.75 546.785 675.023 546.21C671.297 545.635 667.889 543.739 665.401 540.855C656.176 530.446 678.699 526.413 686.353 533.352C686.353 533.352 794.779 530.031 806.361 464.614C817.943 399.198 827.662 333.752 874.833 353.205Z" fill="black"/>
<path d="M838.662 274.325C837.409 281.567 837.106 288.946 837.76 296.269C838.039 298.015 838.986 299.576 840.394 300.61C841.801 301.645 843.555 302.067 845.268 301.785C848.02 301.478 850.629 300.378 852.788 298.613C854.948 296.848 856.569 294.492 857.461 291.821L862.349 280.641C863.109 278.314 863.142 275.804 862.444 273.456C861.745 271.109 860.35 269.04 858.45 267.534C851.553 261.515 839.681 266.319 838.662 274.325Z" fill="#F4A28C"/>
<path d="M863.019 285.297L867.122 328.444L843.609 329.037L849.924 298.197L863.019 285.297Z" fill="#F4A28C"/>
<path d="M837.644 282.599L833.599 287.343C833.37 287.61 833.21 287.932 833.136 288.279C833.062 288.625 833.074 288.985 833.173 289.326C833.272 289.666 833.453 289.975 833.701 290.225C833.948 290.474 834.253 290.656 834.588 290.753L839.448 292.177L837.644 282.599Z" fill="#F4A28C"/>
<path opacity="0.31" d="M849.72 299.057C852.536 298.478 855.143 297.125 857.257 295.142C857.257 295.142 859.032 304.454 847.916 307.893L849.72 299.057Z" fill="#CE8172"/>
<path d="M852.63 285.03C852.63 285.03 853.154 279.959 856.879 280.701C860.603 281.442 859.789 288.767 854.696 288.974L852.63 285.03Z" fill="#F4A28C"/>
<path d="M841.426 273.94C845.383 275.343 849.546 276.045 853.736 276.015C853.736 276.015 853.939 290.842 864.619 296.536C864.619 296.536 878.907 276.757 867.151 266.111C857.344 257.215 850.186 249.564 839.768 256.385C838.259 257.367 837.047 258.755 836.263 260.395C835.48 262.035 835.156 263.864 835.328 265.679C835.499 267.495 836.159 269.227 837.236 270.685C838.312 272.142 839.762 273.269 841.426 273.94V273.94Z" fill="#24285B"/>
<path d="M875.473 274.355C882.609 274.355 888.394 268.46 888.394 261.189C888.394 253.917 882.609 248.022 875.473 248.022C868.338 248.022 862.553 253.917 862.553 261.189C862.553 268.46 868.338 274.355 875.473 274.355Z" fill="#24285B"/>
<path d="M852.252 283.607C852.252 283.607 853.765 277.913 858.072 279.604C862.378 281.294 861.273 288.055 855.162 289.745L852.252 283.607Z" fill="#F4A28C"/>
<path d="M948.835 535.22L963.937 669.345H823.53L847.916 545.392L948.835 535.22Z" fill="#24285B"/>
<path d="M777.174 527.066L766.96 514.641C768.062 511.316 768.784 507.873 769.113 504.38L783.459 497.263C784.76 496.593 785.785 495.474 786.35 494.105C786.915 492.736 786.984 491.207 786.544 489.791L778.512 464.525C778.081 463.09 777.153 461.863 775.9 461.072C774.648 460.281 773.156 459.98 771.703 460.226L755.989 462.983C753.684 460.388 751.13 458.033 748.365 455.955L749.47 439.853C749.585 438.36 749.161 436.876 748.276 435.68C747.392 434.484 746.109 433.658 744.669 433.359L719.09 427.784C717.665 427.457 716.173 427.672 714.892 428.387C713.611 429.102 712.631 430.269 712.135 431.669L706.635 447C703.289 447.758 700.023 448.851 696.887 450.262L683.646 441.069C682.418 440.276 680.955 439.948 679.513 440.144C678.071 440.339 676.743 441.044 675.76 442.137L658.3 461.857C657.315 462.966 656.752 464.399 656.715 465.896C656.678 467.392 657.168 468.852 658.096 470.011L668.311 482.436C667.729 484.305 667.263 485.965 666.943 487.507C666.596 489.222 666.333 490.954 666.157 492.697L651.84 499.784C650.535 500.449 649.507 501.568 648.941 502.939C648.375 504.309 648.309 505.841 648.755 507.257L656.787 532.522C657.213 533.961 658.14 535.192 659.394 535.984C660.648 536.776 662.142 537.074 663.596 536.822L679.31 534.064C681.605 536.659 684.15 539.014 686.905 541.092L685.829 557.194C685.714 558.687 686.139 560.171 687.023 561.367C687.907 562.563 689.19 563.389 690.63 563.688L716.18 569.263C717.608 569.585 719.103 569.369 720.386 568.654C721.67 567.94 722.657 566.777 723.164 565.378L728.635 550.166C731.985 549.435 735.252 548.352 738.383 546.934L751.653 556.008C752.865 556.847 754.336 557.204 755.789 557.013C757.242 556.822 758.576 556.095 759.539 554.97L776.999 535.161C777.965 534.052 778.513 532.629 778.545 531.146C778.577 529.663 778.091 528.217 777.174 527.066V527.066ZM712.95 521.135C708.554 520.177 704.535 517.911 701.403 514.626C698.27 511.34 696.164 507.181 695.351 502.676C694.538 498.171 695.055 493.521 696.835 489.314C698.616 485.108 701.581 481.534 705.354 479.045C709.128 476.556 713.542 475.263 718.037 475.33C722.532 475.397 726.906 476.821 730.607 479.422C734.308 482.023 737.168 485.684 738.827 489.942C740.486 494.2 740.868 498.863 739.926 503.342C738.648 509.338 735.094 514.575 730.04 517.909C724.985 521.243 718.841 522.403 712.95 521.135V521.135Z" fill="#24285B"/>
<path d="M856.966 328.384C856.966 328.384 911.528 315.455 934.692 383.452C951.803 433.626 948.835 535.309 948.835 535.309L837.789 546.489C837.789 546.489 853.736 491.659 813.345 478.641C776.417 466.779 759.394 415.389 815.644 348.163C820.788 342.101 827.124 337.207 834.243 333.8C841.361 330.392 849.103 328.547 856.966 328.384V328.384Z" fill="#68E1FD"/>
<path opacity="0.08" d="M852.63 544.858L907.542 539.313C907.542 539.313 943.626 460.641 938.504 396.588C938.504 396.588 928.581 355.844 905.999 340.038C883.418 324.233 871.778 475.231 871.778 475.231L852.63 544.858Z" fill="black"/>
<path d="M892.119 332.18C892.119 332.18 932.044 338.704 917.698 416.16C903.351 493.616 866.016 587.915 750.082 561.464C747.387 564.168 743.842 565.815 740.072 566.113C736.302 566.411 732.55 565.342 729.479 563.095C718.188 555.089 739.256 545.955 748.248 550.996C748.248 550.996 853.154 522.855 850.098 456.46C847.043 390.064 841.834 324.084 892.119 332.18Z" fill="#F4A28C"/>
<path d="M716.617 526.858C730.631 526.858 741.992 515.281 741.992 501C741.992 486.719 730.631 475.142 716.617 475.142C702.602 475.142 691.241 486.719 691.241 501C691.241 515.281 702.602 526.858 716.617 526.858Z" stroke="#24285B" stroke-width="5.075" stroke-miterlimit="10"/>
<path opacity="0.15" d="M716.617 526.858C730.631 526.858 741.992 515.281 741.992 501C741.992 486.719 730.631 475.142 716.617 475.142C702.602 475.142 691.241 486.719 691.241 501C691.241 515.281 702.602 526.858 716.617 526.858Z" stroke="white" stroke-width="5.075" stroke-miterlimit="10"/>
<path d="M275.635 703.684H205.155V762.31H275.635V703.684Z" fill="#C9C9C9"/>
<path d="M831.707 335.056C831.707 335.056 826.818 329.511 840.99 320.971C855.162 312.431 876.259 308.368 876.987 328.028C876.987 328.028 851.902 325.419 831.707 335.056Z" fill="#68E1FD"/>
<path opacity="0.46" d="M831.707 335.056C831.707 335.056 826.818 329.511 840.99 320.971C855.162 312.431 876.259 308.368 876.987 328.028C876.987 328.028 851.902 325.419 831.707 335.056Z" fill="white"/>
</svg>
