<svg width="189" height="31" viewBox="0 0 189 31" fill="none" xmlns="http://www.w3.org/2000/svg">
<path d="M4.48047 26.9336V1.5625H0.867188V30H18.3867V26.9336H4.48047ZM33.7578 30.3906C35.8151 30.3906 37.5404 29.9805 38.9336 29.1602C40.3398 28.3268 41.3945 27.3763 42.0977 26.3086L39.8906 24.5898C39.2266 25.4492 38.3932 26.1393 37.3906 26.6602C36.388 27.181 35.2422 27.4414 33.9531 27.4414C32.9766 27.4414 32.0846 27.2591 31.2773 26.8945C30.4701 26.5299 29.7799 26.0286 29.207 25.3906C28.6471 24.7917 28.2044 24.1016 27.8789 23.3203C27.5664 22.5391 27.3646 21.6341 27.2734 20.6055V20.4688H42.3711V18.8477C42.3711 17.3763 42.1823 16.0091 41.8047 14.7461C41.4401 13.4831 40.8802 12.3828 40.125 11.4453C39.3698 10.5208 38.4193 9.79818 37.2734 9.27734C36.1406 8.74349 34.8125 8.47656 33.2891 8.47656C32.0781 8.47656 30.8932 8.72396 29.7344 9.21875C28.5885 9.71354 27.5664 10.4232 26.668 11.3477C25.7565 12.2852 25.0273 13.431 24.4805 14.7852C23.9336 16.1263 23.6602 17.6497 23.6602 19.3555V20.1758C23.6602 21.6471 23.9076 23.0078 24.4023 24.2578C24.8971 25.5078 25.5872 26.5885 26.4727 27.5C27.3581 28.4115 28.4193 29.1211 29.6562 29.6289C30.9062 30.1367 32.2734 30.3906 33.7578 30.3906ZM33.2891 11.4453C34.2135 11.4453 35.0078 11.6146 35.6719 11.9531C36.349 12.2917 36.9089 12.7344 37.3516 13.2812C37.7943 13.8281 38.1393 14.4792 38.3867 15.2344C38.6341 15.9766 38.7578 16.6732 38.7578 17.3242V17.5H27.3906C27.5339 16.5234 27.7812 15.6641 28.1328 14.9219C28.4974 14.1667 28.9401 13.5286 29.4609 13.0078C29.9818 12.5 30.5677 12.1159 31.2188 11.8555C31.8698 11.582 32.5599 11.4453 33.2891 11.4453ZM57 3.75H53.3672V8.86719H47.8203V11.6602H53.3672V23.1445C53.3672 24.4466 53.5365 25.5599 53.875 26.4844C54.2266 27.3958 54.7018 28.138 55.3008 28.7109C55.8997 29.2969 56.6029 29.7266 57.4102 30C58.2305 30.2604 59.1094 30.3906 60.0469 30.3906C60.6068 30.3906 61.1667 30.3646 61.7266 30.3125C62.2995 30.2604 62.8398 30.1823 63.3477 30.0781C63.8555 29.987 64.3242 29.8763 64.7539 29.7461C65.1836 29.6029 65.5482 29.4401 65.8477 29.2578L65.3398 26.6992C65.1185 26.7513 64.832 26.8164 64.4805 26.8945C64.1419 26.9596 63.7773 27.0247 63.3867 27.0898C62.9831 27.1549 62.5729 27.2135 62.1562 27.2656C61.7396 27.3047 61.3359 27.3242 60.9453 27.3242C60.4115 27.3242 59.9036 27.2591 59.4219 27.1289C58.9531 26.9987 58.5365 26.7708 58.1719 26.4453C57.8073 26.1328 57.5208 25.7096 57.3125 25.1758C57.1042 24.6419 57 23.9648 57 23.1445V11.6602H65.0469V8.86719H57V3.75ZM86.5117 24.3945C86.5117 24.7331 86.4466 25.0521 86.3164 25.3516C86.1862 25.651 85.9974 25.9245 85.75 26.1719C85.3464 26.5755 84.7865 26.8945 84.0703 27.1289C83.3542 27.3503 82.5143 27.4609 81.5508 27.4609C80.9388 27.4609 80.3203 27.3958 79.6953 27.2656C79.0703 27.1354 78.5039 26.9141 77.9961 26.6016C77.4753 26.2891 77.0391 25.8789 76.6875 25.3711C76.349 24.8633 76.1536 24.2383 76.1016 23.4961H72.4883C72.4883 24.3945 72.6901 25.2604 73.0938 26.0938C73.5104 26.9271 74.1094 27.6562 74.8906 28.2812C75.6589 28.9193 76.6029 29.4336 77.7227 29.8242C78.8424 30.2018 80.1185 30.3906 81.5508 30.3906C82.8008 30.3906 83.9531 30.2409 85.0078 29.9414C86.0625 29.6419 86.9674 29.2188 87.7227 28.6719C88.4779 28.125 89.0638 27.4674 89.4805 26.6992C89.9102 25.931 90.125 25.0781 90.125 24.1406C90.125 23.2682 89.9362 22.5 89.5586 21.8359C89.194 21.1719 88.6602 20.5859 87.957 20.0781C87.2539 19.5833 86.388 19.1602 85.3594 18.8086C84.3307 18.444 83.1654 18.125 81.8633 17.8516C80.8737 17.6562 80.0534 17.4544 79.4023 17.2461C78.7643 17.0378 78.2565 16.8034 77.8789 16.543C77.4883 16.2826 77.2148 15.9896 77.0586 15.6641C76.9023 15.3385 76.8242 14.9674 76.8242 14.5508C76.8242 14.1471 76.9219 13.7565 77.1172 13.3789C77.3125 13.0013 77.6055 12.6693 77.9961 12.3828C78.3737 12.0964 78.849 11.8685 79.4219 11.6992C80.0078 11.5299 80.6849 11.4453 81.4531 11.4453C82.1953 11.4453 82.8594 11.5495 83.4453 11.7578C84.0443 11.9661 84.5521 12.2396 84.9688 12.5781C85.3854 12.9167 85.7109 13.3073 85.9453 13.75C86.1797 14.1797 86.2969 14.6224 86.2969 15.0781H89.9102C89.9102 14.1536 89.7083 13.2943 89.3047 12.5C88.9141 11.6927 88.3542 10.9896 87.625 10.3906C86.8958 9.79167 86.0104 9.32292 84.9688 8.98438C83.9271 8.64583 82.7552 8.47656 81.4531 8.47656C80.2422 8.47656 79.1289 8.63932 78.1133 8.96484C77.1107 9.29036 76.2448 9.73307 75.5156 10.293C74.7865 10.8529 74.2201 11.5104 73.8164 12.2656C73.4128 13.0078 73.2109 13.8086 73.2109 14.668C73.2109 15.5404 73.4062 16.3086 73.7969 16.9727C74.1875 17.6237 74.7409 18.1901 75.457 18.6719C76.1602 19.1667 77.0065 19.5898 77.9961 19.9414C78.9987 20.293 80.1055 20.5924 81.3164 20.8398C82.306 21.0352 83.1328 21.2565 83.7969 21.5039C84.4609 21.7383 84.9948 21.9987 85.3984 22.2852C85.8021 22.5716 86.0885 22.8906 86.2578 23.2422C86.4271 23.5807 86.5117 23.9648 86.5117 24.3945Z" fill="black"/>
<path d="M116.551 6.03516V1.5625H93.6211V6.03516H102.273V30H107.781V6.03516H116.551ZM133.074 30H138.582V29.668C138.309 29.1341 138.1 28.4961 137.957 27.7539C137.814 27.0117 137.742 26.0742 137.742 24.9414V15.8789C137.742 14.6549 137.514 13.5807 137.059 12.6562C136.603 11.7188 135.971 10.944 135.164 10.332C134.357 9.72005 133.4 9.25781 132.293 8.94531C131.199 8.63281 130.014 8.47656 128.738 8.47656C127.319 8.47656 126.056 8.65885 124.949 9.02344C123.855 9.375 122.931 9.85677 122.176 10.4688C121.408 11.0807 120.822 11.7904 120.418 12.5977C120.027 13.4049 119.832 14.2578 119.832 15.1562H125.262C125.262 14.7786 125.314 14.4336 125.418 14.1211C125.535 13.8086 125.711 13.5417 125.945 13.3203C126.206 13.0729 126.544 12.8841 126.961 12.7539C127.378 12.6107 127.872 12.5391 128.445 12.5391C129.096 12.5391 129.663 12.6237 130.145 12.793C130.639 12.9492 131.049 13.1771 131.375 13.4766C131.688 13.763 131.922 14.1081 132.078 14.5117C132.234 14.9023 132.312 15.3451 132.312 15.8398V17.0898H129.285C127.723 17.0898 126.336 17.2331 125.125 17.5195C123.927 17.793 122.918 18.1966 122.098 18.7305C121.186 19.3164 120.503 20.0651 120.047 20.9766C119.591 21.875 119.363 22.9102 119.363 24.082C119.363 24.9935 119.546 25.8398 119.91 26.6211C120.275 27.3893 120.783 28.0534 121.434 28.6133C122.085 29.1732 122.859 29.6094 123.758 29.9219C124.669 30.2344 125.665 30.3906 126.746 30.3906C127.41 30.3906 128.029 30.3255 128.602 30.1953C129.174 30.0781 129.702 29.9089 130.184 29.6875C130.652 29.4792 131.082 29.2318 131.473 28.9453C131.863 28.6589 132.208 28.3529 132.508 28.0273C132.573 28.4049 132.651 28.763 132.742 29.1016C132.833 29.4401 132.944 29.7396 133.074 30ZM127.898 26.1914C127.391 26.1914 126.941 26.1328 126.551 26.0156C126.173 25.8854 125.854 25.7161 125.594 25.5078C125.333 25.2865 125.132 25.0195 124.988 24.707C124.858 24.3815 124.793 24.0299 124.793 23.6523C124.793 23.1706 124.884 22.7279 125.066 22.3242C125.249 21.9076 125.529 21.5495 125.906 21.25C126.284 20.9635 126.772 20.7422 127.371 20.5859C127.97 20.4167 128.693 20.332 129.539 20.332H132.312V23.9648C132.156 24.2383 131.941 24.5117 131.668 24.7852C131.395 25.0456 131.069 25.2799 130.691 25.4883C130.314 25.6966 129.891 25.8659 129.422 25.9961C128.953 26.1263 128.445 26.1914 127.898 26.1914ZM145.027 0V4.43359H151.355V25.5859H145.027V30H162.898V25.5859H156.844V0H145.027ZM175.867 21.2695L181.863 30H188.523L179.441 17.6758L187.41 8.86719H180.887L175.047 15.2734L173.406 17.1484V0H167.977V30H173.406V23.5547L175.867 21.2695Z" fill="#D4A373"/>
</svg>
